<svg id="Glyph" xmlns="http://www.w3.org/2000/svg" viewBox="0 0 64 64"><title>1</title><path d="M36.94561,22.426C33.11905,15.285,26.02389,4.61758,25.813,4.40571a1.0338,1.0338,0,0,0-1.642-.0003C23.42015,5.48666,5.97021,30.86564,5.97021,41.01726c.132,18.68313,24.12728,25.98392,34.66968,10.80209C47.18536,42.133,43.03527,33.87258,36.94561,22.426ZM21.88843,52.67059a1.00066,1.00066,0,0,1-1.2815.60066,13.04913,13.04913,0,0,1-8.62985-12.254,1.00114,1.00114,0,1,1,2.00228,0A11.05358,11.05358,0,0,0,21.27768,51.3891,1.00009,1.00009,0,0,1,21.88843,52.67059Z"/><path d="M43.84351,10.41227a.99467.99467,0,0,0-1.08125-.40048c-.62071.16022-3.69423,5.07581-5.74656,8.44966,4.6983,7.82443,9.38792,18.61836,9,22.55588a20.83269,20.83269,0,0,1-3.734,11.94357c-.55878.82082-1.11176,1.11691.29045,1.06109A14.95082,14.95082,0,0,0,58.02967,39.015C58.02971,31.05586,44.42413,11.2532,43.84351,10.41227Z"/></svg>